<svg xmlns="http://www.w3.org/2000/svg" width="512" height="512" viewBox="0 0 512 512">
  <defs>
    <linearGradient id="g" x1="0" y1="0" x2="1" y2="1">
      <stop offset="0%" stop-color="#1b7a67"/>
      <stop offset="100%" stop-color="#18a57f"/>
    </linearGradient>
  </defs>
  <rect width="512" height="512" rx="96" fill="url(#g)"/>
  <g fill="#fff" transform="translate(96,96)">
    <path d="M0 192c0-88.365 71.635-160 160-160 35.346 0 68.07 11.37 94.4 30.58 10.52 7.64 12.62 22.27 4.98 32.79s-22.27 12.62-32.79 4.98C209.1 88.5 185.86 80 160 80c-61.757 0-112 50.243-112 112s50.243 112 112 112c25.86 0 49.1-8.5 66.59-22.35 10.52-7.64 25.15-5.54 32.79 4.98s5.54 25.15-4.98 32.79C228.07 342.63 195.35 354 160 354 71.635 354 0 282.365 0 194z"/>
    <path d="M256 154h60c13.255 0 24 10.745 24 24v60c0 13.255-10.745 24-24 24h-60c-13.255 0-24-10.745-24-24v-60c0-13.255 10.745-24 24-24z" opacity=".9"/>
  </g>
</svg>
